# xmcd
#
# Track frame offsets:
#	150
#	14547
#	29428
#	42835
#	58385
#	74666
#	89528
#	104391
#	117706
#	134120
#	148728
#	164027
#	179173
#	194231
#	210021
#	225933
#	242998
#	259174
#	273106
#	288763
#	303964
#	318234
#
# Disc length: 4467 seconds
#
# Revision: 1
# Processed by: cddbd v1.5.2PL0 Copyright (c) Steve Scherf et al.
# Submitted via: EZCDAudioConverter 2.3.5.1
#
DISCID=5d117116
DTITLE=트롯 베스트 3
DYEAR=2014
DGENRE=Trot
TTITLE0=조항조 - 사랑꽃
TTITLE1=오승근 - 내 나이가 어때서
TTITLE2=조항조 - 사랑찾아 인생찾아
TTITLE3=강진 - 삼각관계
TTITLE4=강민 - 세월아 청춘아
TTITLE5=강진 - 정들었어요
TTITLE6=박구윤 - 너랑나랑
TTITLE7=신유 - 시계바늘
TTITLE8=홍원빈 - 안동역에서
TTITLE9=김혜연 - 최고다 당신
TTITLE10=유진표 - 천년지기
TTITLE11=김연숙 - 달려와
TTITLE12=박상철 - 빈깡통
TTITLE13=소유찬 - 매운사랑
TTITLE14=금장디 - 오라버니
TTITLE15=홍원빈 - 남자의 인생
TTITLE16=문연주 - 웃으며 삽시다
TTITLE17=우연이 - 몰랐네
TTITLE18=현철 - 나쁜 사람이야
TTITLE19=박일준 - 놀아봅시다
TTITLE20=지원이 - 사랑은 핫 뜨거
TTITLE21=소명 - 안녕들 하십니까
EXTD=
EXTT0=
EXTT1=
EXTT2=
EXTT3=
EXTT4=
EXTT5=
EXTT6=
EXTT7=
EXTT8=
EXTT9=
EXTT10=
EXTT11=
EXTT12=
EXTT13=
EXTT14=
EXTT15=
EXTT16=
EXTT17=
EXTT18=
EXTT19=
EXTT20=
EXTT21=
PLAYORDER=
